<?xml version="1.0" standalone="no"?>
<!DOCTYPE svg PUBLIC "-//W3C//DTD SVG 20010904//EN"
 "http://www.w3.org/TR/2001/REC-SVG-20010904/DTD/svg10.dtd">
<svg version="1.0" xmlns="http://www.w3.org/2000/svg"
 width="700.000000pt" height="700.000000pt" viewBox="0 0 700.000000 700.000000"
 preserveAspectRatio="xMidYMid meet">
<metadata>
Created by potrace 1.14, written by Peter Selinger 2001-2017
</metadata>
<g transform="translate(0.000000,700.000000) scale(0.100000,-0.100000)"
fill="#000000" stroke="none">
<path d="M2429 6996 c-2 -2 -25 -7 -50 -10 -244 -32 -490 -238 -582 -486 -49
-131 -46 22 -47 -3123 0 -1615 3 -2937 7 -2938 5 0 792 -1 1751 -2 l1742 -2 0
2945 c0 3193 3 2991 -53 3130 -98 245 -289 407 -562 477 -31 7 -2198 17 -2206
9z m2112 -669 c50 -33 52 -46 53 -352 l1 -285 -30 -1 c-45 -1 -2063 -1 -2115
0 l-45 1 1 289 c2 278 2 291 23 319 13 19 35 33 58 39 20 4 485 8 1032 8 920
-1 998 -2 1022 -18z"/>
<path d="M735 5674 c-190 -33 -333 -105 -466 -235 -108 -105 -173 -206 -218
-336 -52 -149 -50 -72 -50 -2043 0 -1202 3 -1852 10 -1885 6 -27 12 -60 15
-73 21 -105 90 -240 174 -341 64 -78 61 -75 125 -127 131 -106 295 -175 457
-190 94 -9 507 -11 520 -3 7 5 10 829 10 2605 0 1430 -1 2609 -1 2621 -1 21
-2 21 -253 20 -148 0 -282 -6 -323 -13z"/>
<path d="M5694 5679 c-10 -17 -6 -5231 4 -5238 13 -8 474 -5 537 3 359 49 633
293 742 661 17 56 18 170 20 1925 3 2052 6 1936 -58 2102 -83 216 -287 418
-497 496 -135 49 -217 59 -490 60 -146 0 -255 -4 -258 -9z"/>
</g>
</svg>
